<?xml version="1.0" encoding="UTF-8"?><svg id="Layer_1" xmlns="http://www.w3.org/2000/svg" viewBox="0 0 1000 179.39"><defs><style>.cls-1{fill:#003eff;}</style></defs><path class="cls-1" d="m120.87,179.39C105.24,163.99,70.5,153.53,0,153.24v-7.79c43.79-12.79,97.85-15.45,124.18-3.08,26.33-12.37,80.39-9.7,124.18,3.08v7.79c-70.5.29-105.24,10.75-120.87,26.15h-6.62Z"/><path class="cls-1" d="m124.18,72.69c43.73,0,102.46,34.23,124.18,49.73v9.2c-33.52-13.25-81.35-20.42-124.18-20.42S33.52,118.37,0,131.63v-9.2c21.72-15.5,80.45-49.73,124.18-49.73"/><path class="cls-1" d="m124.18,0c47.82,0,107.75,71.65,124.18,98.86v9.75c-23.18-21.79-81.43-63.46-124.18-63.57-42.75.11-101,41.78-124.18,63.57v-9.75C16.43,71.65,76.36,0,124.18,0"/><rect x="738.73" y="76.56" width="19.99" height="84.36"/><rect x="738.73" y="42.56" width="19.99" height="15.56"/><path d="m723.41,74.63c-11.38-.09-23.21,3.92-33.08,9.08v-7.15h-19.15v84.36h19.15v-68.01c9.78-2.38,21.79-3.87,33.08-3.76v-14.52Z"/><path d="m929.14,160.93h18.08v-49.68c0-7.85-.38-14.4-1.78-19.73,8.1-1.5,16.86-2.38,24.64-2.36,4.33.02,8.42.05,10.09,3.75,2.1,4.64,1.89,12.85,1.83,18.34l-.07,49.68h18.08v-49.68c0-14.05-1.22-23.97-7.32-30.06,0,0-6.04-7.32-23.03-6.53v.02c-8.92.45-19.29,4.56-27.76,8.88,0,0-5.36-9.82-25.02-8.89v.02c-7.78.39-16.66,3.57-24.42,7.24v-5.35h-19.15v84.36h19.15v-69.37c8.16-1.53,17.01-2.42,24.85-2.39,4.33.02,7.99.49,9.66,4.19,2.09,4.62,2.24,12.34,2.21,17.9l-.03,49.68Z"/><path d="m836.85,154.68v6.24h19.16v-84.36h-19.16v68c-9.74,2.36-22.51,4.09-31.33,3.78-4.16-.14-7.6-2.81-9.33-6.48-2.22-4.71-2.45-10.59-2.51-15.63v-49.67h-18.09v49.69c0,14.05,1.28,23.92,7.32,30.06,3.66,3.71,10.57,6.56,22.6,6.56,7.17,0,18.29-1.16,31.34-8.2"/><path d="m633.47,142.18c-.84-1.44-1.18-2.67-1.18-7.23v-44.43h21.25v-13.95h-21.25v-26.18h-19.15v84.57c0,10.72,1.93,16.11,5.75,20.04,3.82,3.93,9.99,5.93,18.36,5.93h18.17v-15.46h-14.43c-4.3,0-6.35-1.31-7.51-3.29"/><path d="m528.88,79.61c-6.44,4.12-9.84,8.62-13.67,15.43-3.55,6.31-5.28,14.81-5.28,22.81,0,9.71,1.72,15.48,3.78,20.57,2.8,6.93,9.39,14.69,14.4,17.71,6.73,4.06,13.1,5.42,18.34,5.81,0,0,8.7,1.27,17.16-3.3,4.33-2.34,7.47-4.3,10.03-7.86v10.15h19.15v-84.36h-19.15v5.48c-8.18-3.91-15.68-7.6-24.02-7.68,0,0-11.27-.82-20.74,5.24m44.76,13.48v24.76c0,7.62.28,15.18-3.45,20.57-5.01,7.25-14.08,9.88-20.57,9.26-5.53-.53-13.52-4.17-17.42-9.26-3.24-4.23-5.94-10.52-5.94-20.58s2.13-17.42,5.37-21.65c4.72-6.17,11.87-6.47,17.99-6.48,12.77-.02,24.02,3.37,24.02,3.37"/><path d="m324.38,103.47c-11.15-4.76-20.79-11.83-20.79-29.38,0-9.19,4.16-17.84,11.78-23.97,7.96-6.41,19.01-9.29,30.9-9.57,15.5-.37,34.46,7.98,45.2,18.35l-10.83,13.82c-7.91-8.38-19.86-17.23-34.37-17.14-14.66.1-21.87,9.52-21.87,18.5,0,11.23,8.19,17.51,21.87,20.11,22.9,4.35,44.92,9.24,46.11,34.17.48,10-3.14,18.92-10.61,24.79-8.44,6.63-20.24,9.63-35.5,9.63-18.89,0-35.23-6.48-46.52-19.12l10.64-14.37c6.06,6.63,17.58,19.35,35.88,19.35,15.05,0,26.3-8.86,26.3-20.29,0-8.03-5.14-11.85-13.71-14.82-7.86-2.73-25.3-6.15-34.47-10.07"/><path d="m450.54,149.46c-7.52-.31-14.29-3.35-18.53-7.78-4.21-4.38-6.64-10.1-6.71-16.34h67.33v-6.65c0-27.44-17.3-46.6-42.07-46.6-11.89,0-23.52,5.11-30.91,13.38-7.92,8.86-10.91,17.59-11.99,26.26-3.89,31.16,17.93,51.79,42.89,51.79,17.78,0,30.07-4.77,40.12-13.84l-8.71-11.31s-10.12,11.98-31.42,11.09m.02-62.2c21.52,0,24.78,17.93,25.25,24.48h-50.68c.23-11.96,7-24.48,25.43-24.48"/></svg>